<?xml version="1.0" encoding="utf-8"?>
<!-- Generator: Adobe Illustrator 16.0.0, SVG Export Plug-In . SVG Version: 6.00 Build 0)  -->
<!DOCTYPE svg PUBLIC "-//W3C//DTD SVG 1.1//EN" "http://www.w3.org/Graphics/SVG/1.1/DTD/svg11.dtd">
<svg version="1.1" id="Layer_1" xmlns="http://www.w3.org/2000/svg" xmlns:xlink="http://www.w3.org/1999/xlink" x="0px" y="0px"
	 width="461.418px" height="94.438px" viewBox="0 0 461.418 94.438" enable-background="new 0 0 461.418 94.438"
	 xml:space="preserve">
<path fill-rule="evenodd" clip-rule="evenodd" fill="#FFFFFF" d="M184.321,37.589c-4.882-18.772-23.891-24.29-38.39-11.277
	c-0.185,0.166-0.592,0.085-0.978,0.128c-0.174-1.776-0.348-3.55-0.543-5.534c-1.736-0.08-3.206-0.218-4.673-0.197
	c-1.439,0.02-2.876,0.2-4.484,0.322c0,24.467,0,48.576,0,73.087c3.395,0.256,6.603,0.734,10.288-0.401c0-8.517,0-16.94,0-25.423
	c3.381,1.975,6.167,4.251,9.359,5.351c11.769,4.056,23.97-2.236,28.479-14.428C185.998,52.134,186.201,44.82,184.321,37.589z
	 M172.004,58.812c-5.849,9.58-18.59,9.44-23.982-0.369c-3.938-7.165-3.969-14.656-0.588-22.047c2.364-5.169,6.72-7.73,12.307-7.897
	c5.64-0.168,9.902,2.378,12.607,7.372c1.945,3.59,2.781,7.442,2.527,11.306C175.055,51.484,174.135,55.322,172.004,58.812z"/>
<path fill-rule="evenodd" clip-rule="evenodd" fill="#FFFFFF" d="M217.729,65.135c-7.854-2.099-12.321-7.562-12.78-16.364
	c12.58,0,25.15,0,38.399,0c-0.198-4.076,0.018-7.589-0.611-10.943c-1.387-7.41-5.14-13.311-12.275-16.544
	c-9.983-4.523-23.538-1.326-30.45,7.194c-11.154,13.75-8.162,41.848,17.258,45.979c9.307,1.513,17.688-1.004,25.301-7.274
	c-1.469-2.626-2.748-4.913-4.153-7.425C232.005,64.027,225.534,67.22,217.729,65.135z M220.231,27.642
	c6.756-0.145,12.804,5.639,12.204,12.966c-8.922,0-17.868,0-26.82,0C206.28,32.812,212.17,27.814,220.231,27.642z"/>
<path fill-rule="evenodd" clip-rule="evenodd" fill="#FFFFFF" d="M417.24,26.603c-8.561-10.379-26.515-8.795-34.763-0.938
	c-9.107,8.675-10.784,19.407-7.29,30.769c3.486,11.337,12.146,17.152,23.807,18.227c8.624,0.794,16.328-1.716,23.294-7.463
	c-1.528-2.69-2.869-5.052-4.268-7.514c-8.557,6.026-16.97,8.666-26.064,3.06c-4.979-3.069-7.261-7.747-7.143-14.16
	c12.808,0,25.221,0,37.828,0C423.617,40.224,422.468,32.939,417.24,26.603z M385.005,40.521c1.729-8.739,7.844-13.472,16.274-12.799
	c6.538,0.521,10.466,5.088,10.737,12.799C403.147,40.521,394.279,40.521,385.005,40.521z"/>
<path fill-rule="evenodd" clip-rule="evenodd" fill="#FFFFFF" d="M35.539,28.805c6.8-7.617,14.596-10.557,24.137-9.103
	c7.09,1.081,11.45,4.946,13.037,11.913c0.587,2.58,0.941,5.268,0.968,7.91c0.106,10.485,0.045,20.972,0.03,31.458
	c-0.001,0.649-0.138,1.3-0.253,2.322c-3.274,0-6.49,0-10.101,0c-0.103-1.438-0.292-2.876-0.296-4.315
	c-0.027-9.321,0.033-18.643-0.027-27.964c-0.07-11.068-7.492-15.448-17.382-10.263c-6.764,3.546-9.476,9.59-9.704,16.844
	c-0.215,6.817-0.056,13.647-0.061,20.472c-0.001,1.646,0,3.291,0,5.273c-3.37,0-6.428,0-9.829,0c0-17.328,0-34.567,0-52.236
	c2.895,0,5.941,0,9.48,0C35.539,23.631,35.539,26.218,35.539,28.805z"/>
<path fill-rule="evenodd" clip-rule="evenodd" fill="#FFFFFF" d="M84.245,66.728c1.61-2.368,3.08-4.529,4.363-6.419
	c4.228,1.799,8.061,3.629,12.038,5.056c2.917,1.046,5.972,0.585,8.719-0.842c4.363-2.267,4.793-6.767,0.747-9.569
	c-2.426-1.682-5.31-2.701-7.983-4.028c-3.414-1.694-7.069-3.037-10.185-5.169c-8.774-6.004-8.096-18.345,1.097-23.602
	c8.551-4.89,22.25-3.348,28.952,3.446c-1.202,2.236-2.446,4.551-3.842,7.148c-1.717-0.933-3.219-1.892-4.833-2.599
	c-3.741-1.639-7.645-2.245-11.688-1.33c-2.645,0.6-4.56,2.045-5.021,4.87c-0.439,2.688,0.976,4.55,3.169,5.688
	c2.941,1.524,6.045,2.73,9.045,4.146c2.697,1.272,5.476,2.438,7.993,4.013c4.768,2.981,7.073,7.396,6.565,13.081
	c-0.525,5.873-3.819,9.814-9.036,12.176C105.007,77.021,92.3,74.576,84.245,66.728z"/>
<path fill-rule="evenodd" clip-rule="evenodd" fill="#FFFFFF" d="M299.832,27.381c-1.432,2.103-2.905,4.265-4.583,6.728
	c-1.64-1.058-3.092-2.087-4.629-2.97c-11.232-6.449-26.578-1.474-28.21,13.529c-1.611,14.815,11,23.315,21.967,20.624
	c4.393-1.078,8.431-3.602,13.193-5.718c1.003,1.821,2.311,4.193,3.555,6.451c-11.296,11.508-30.8,11.672-41.777,0.684
	c-10.492-10.503-10.234-29.269,0.545-39.699C270.629,16.621,289.904,16.688,299.832,27.381z"/>
<path fill-rule="evenodd" clip-rule="evenodd" fill="#FFFFFF" d="M447.874,29.555c0,9.163-0.225,17.61,0.086,26.037
	c0.18,4.861,3.29,7.858,8.071,8.844c1.604,0.33,3.267,0.376,5.177,0.582c0.08,1.58,0.216,3.048,0.21,4.516
	c-0.005,1.298-0.168,2.597-0.273,4.068c-3.014,0-5.858,0.367-8.574-0.065c-9.679-1.545-14.912-7.756-15.189-17.98
	c-0.185-6.812-0.025-13.633-0.053-20.45c-0.007-1.623-0.143-3.247-0.231-5.127c-2.206-0.184-4.14-0.346-6.409-0.534
	c0-2.538,0-4.953,0-7.758c2.086-0.223,4.17-0.446,6.798-0.728c0-4.779,0-9.508,0-14.59c3.598,0,6.638,0,10.24,0
	c0,4.904,0,9.646,0,14.8c4.306,0,8.071,0,12.271,0c0,2.953,0,5.476,0,8.386C456.075,29.555,452.306,29.555,447.874,29.555z"/>
<path fill-rule="evenodd" clip-rule="evenodd" fill="#FFFFFF" d="M338.727,65.037c0,2.074,0.019,3.716-0.008,5.356
	c-0.015,0.966-0.101,1.931-0.167,3.115c-4.558,0.769-8.805,0.494-12.885-1.066c-7.188-2.75-10.632-8.308-10.867-15.784
	c-0.225-7.146-0.066-14.306-0.075-21.459c-0.002-1.629,0-3.258,0-5.132c-2.349-0.235-4.273-0.429-6.596-0.661
	c0-2.54,0-5.065,0-7.805c2.075-0.179,4.035-0.348,6.652-0.573c0-4.852,0-9.712,0-14.783c3.584,0,6.508,0,9.951,0
	c0,4.841,0,9.583,0,15.018c4.523,0,8.569,0,12.788,0c0,2.995,0,5.284,0,8.237c-4.061,0-8.095,0-12.633,0c0,5.754,0,10.867,0,15.98
	c0,2.496-0.061,4.993,0.014,7.486c0.229,7.614,3.589,11.096,11.264,11.762C336.817,64.785,337.465,64.884,338.727,65.037z"/>
<path fill-rule="evenodd" clip-rule="evenodd" fill="#FFFFFF" d="M366.693,65.081c0,2.996,0,5.612,0,8.762
	c-1.949,0-3.736,0.084-5.514-0.015c-6.287-0.352-10.147-3.59-11.576-9.75c-0.335-1.443-0.529-2.954-0.532-4.435
	c-0.034-18.817-0.024-37.636-0.015-56.453c0.001-0.966,0.106-1.932,0.18-3.19c3.357,0,6.44,0,10.2,0c0,1.834,0,3.605,0,5.378
	c0,15.986,0,31.974,0.001,47.96c0,1.166-0.03,2.333,0.01,3.497C359.659,62.957,360.462,63.895,366.693,65.081z"/>
<path fill-rule="evenodd" clip-rule="evenodd" fill="#FFFFFF" d="M0,20.938c3.367,0,6.434,0,9.761,0c0,17.582,0,34.915,0,52.489
	c-3.355,0-6.42,0-9.761,0C0,55.95,0,38.733,0,20.938z"/>
<path fill-rule="evenodd" clip-rule="evenodd" fill="#FFFFFF" d="M9.679,10.198c-3.3,0-6.25,0-9.577,0c0-3.381,0-6.598,0-10.168
	c3.048,0,6.124,0,9.577,0C9.679,3.214,9.679,6.447,9.679,10.198z"/>
</svg>
